<?xml version="1.0" standalone="no"?>
<!DOCTYPE svg PUBLIC "-//W3C//DTD SVG 20010904//EN"
 "http://www.w3.org/TR/2001/REC-SVG-20010904/DTD/svg10.dtd">
<svg version="1.0" xmlns="http://www.w3.org/2000/svg"
 width="250" height="65" viewBox="0 0 499 220"
 preserveAspectRatio="xMidYMid meet">

<g transform="translate(-155.000000,213.000000) scale(0.160000,-0.160000)"
fill="#FFFFFF" stroke="none">
<path d="M12 1238 l2 -63 3 53 4 52 55 0 c29 0 54 5 54 10 0 6 -27 10 -60 10
l-60 0 2 -62z"/>
<path d="M4860 1290 c0 -5 25 -10 55 -10 l55 0 0 -50 c0 -27 5 -50 10 -50 6 0
10 27 10 60 l0 60 -65 0 c-37 0 -65 -4 -65 -10z"/>
<path d="M2271 1204 c-28 -35 -26 -69 4 -99 49 -50 125 -20 125 50 0 72 -86
104 -129 49z"/>
<path d="M1256 1032 c-8 -14 -6 -436 3 -468 9 -36 50 -58 91 -49 20 4 30 13
30 25 0 13 -5 17 -15 14 -8 -4 -26 -3 -40 0 l-25 6 0 240 c0 231 -1 240 -19
240 -11 0 -22 -4 -25 -8z"/>
<path d="M264 1021 c-2 -2 -4 -116 -4 -253 l0 -248 23 0 c21 0 22 3 19 71 -6
122 -9 119 112 119 90 0 107 3 137 23 94 62 88 221 -10 271 -24 13 -266 28
-277 17z m275 -65 c52 -49 53 -131 4 -180 -24 -25 -31 -26 -135 -26 l-109 0 2
113 c1 61 4 116 7 120 2 5 48 7 103 5 92 -3 99 -5 128 -32z"/>
<path d="M2130 711 l0 -319 43 -3 c23 -2 57 -3 75 -1 28 3 33 7 30 25 -3 19
-8 21 -46 19 l-42 -4 2 274 3 273 43 3 c37 3 42 6 42 28 0 23 -2 24 -75 24
l-75 0 0 -319z"/>
<path d="M2390 1005 c0 -23 4 -25 45 -25 l45 0 0 -275 0 -275 -45 0 c-38 0
-45 -3 -45 -20 0 -18 7 -20 75 -20 l75 0 0 320 0 320 -75 0 c-73 0 -75 -1 -75
-25z"/>
<path d="M866 885 c-49 -17 -102 -69 -117 -113 -18 -54 -7 -134 25 -182 95
-144 311 -78 324 99 7 94 -49 177 -136 201 -46 12 -48 12 -96 -5z m132 -53
c85 -61 81 -201 -7 -259 -94 -63 -211 9 -211 129 0 90 70 164 147 155 22 -2
55 -14 71 -25z"/>
<path d="M1584 875 c-66 -33 -97 -80 -102 -155 -13 -173 169 -272 298 -163 30
25 40 53 19 53 -6 0 -27 -13 -46 -30 -44 -39 -111 -44 -165 -12 -26 15 -68 83
-68 110 0 9 43 12 160 12 l160 0 0 30 c0 71 -63 149 -137 169 -54 15 -63 14
-119 -14z m144 -31 c35 -21 61 -56 68 -94 l7 -30 -142 0 c-123 0 -141 2 -141
16 0 27 40 89 68 107 34 21 106 22 140 1z"/>
<path d="M2855 849 c-20 -18 -35 -28 -34 -23 6 32 -3 44 -31 44 l-30 0 0 -180
0 -180 34 0 34 0 4 129 c3 121 5 131 27 155 31 33 80 35 107 5 16 -18 19 -40
22 -155 l4 -134 34 0 34 0 0 129 c0 115 2 131 21 155 18 23 28 27 63 24 62 -5
76 -40 76 -190 l0 -118 35 0 35 0 0 118 c0 137 -11 184 -51 225 -27 27 -34 29
-85 25 -42 -4 -61 -11 -83 -32 l-28 -27 -31 30 c-25 26 -39 31 -76 31 -37 0
-52 -6 -81 -31z"/>
<path d="M3493 866 c-34 -16 -38 -22 -25 -43 6 -10 20 -10 65 -1 52 11 59 10
84 -8 16 -12 29 -32 31 -46 3 -24 0 -26 -51 -30 -73 -6 -128 -35 -151 -82 -24
-50 -15 -96 26 -131 28 -24 39 -27 85 -23 38 3 60 11 78 28 l25 23 0 -21 c0
-18 6 -22 33 -22 l32 0 -3 122 c-3 162 -7 179 -42 213 -26 25 -40 30 -93 32
-39 2 -74 -2 -94 -11z m157 -221 c0 -50 -21 -80 -65 -91 -61 -15 -104 41 -71
92 21 30 48 43 99 43 l37 1 0 -45z"/>
<path d="M3975 866 c-59 -26 -95 -93 -95 -176 0 -102 55 -171 142 -178 45 -3
59 0 92 23 l39 26 -6 -46 c-9 -63 -22 -84 -64 -102 -36 -15 -99 -11 -136 9
-22 11 -23 11 -32 -24 -6 -24 -4 -27 32 -37 106 -30 212 2 248 74 17 35 20 65
23 238 l4 197 -31 0 c-24 0 -31 -4 -31 -20 0 -18 -2 -18 -36 5 -42 28 -100 32
-149 11z m124 -51 c39 -20 54 -63 49 -135 -4 -49 -9 -66 -31 -88 -38 -37 -96
-37 -134 0 -37 38 -45 136 -13 186 31 50 78 64 129 37z"/>
<path d="M4466 857 c-82 -46 -112 -172 -63 -267 36 -71 63 -85 167 -85 95 0
116 9 105 44 -5 17 -11 19 -38 13 -59 -13 -115 -8 -144 14 -27 20 -56 81 -46
97 2 4 60 7 129 7 l124 0 0 40 c0 53 -33 116 -73 140 -44 27 -111 26 -161 -3z
m139 -52 c14 -13 25 -36 25 -50 0 -25 0 -25 -90 -25 -82 0 -90 2 -90 19 0 10
13 33 29 50 38 40 90 43 126 6z"/>
<path d="M10 357 l0 -67 59 0 c33 0 63 5 66 10 4 6 -16 10 -53 10 l-60 0 0 51
c-1 28 -3 54 -6 57 -3 3 -6 -25 -6 -61z"/>
<path d="M4970 365 l0 -55 -55 0 c-30 0 -55 -4 -55 -10 0 -6 28 -10 65 -10
l65 0 0 65 c0 37 -4 65 -10 65 -5 0 -10 -25 -10 -55z"/>
<path d="M2390 190 l0 -90 28 0 c24 1 25 2 10 14 -14 11 -18 29 -18 90 0 44
-4 76 -10 76 -6 0 -10 -37 -10 -90z"/>
<path d="M2560 265 c7 -8 16 -15 21 -15 5 0 6 7 3 15 -4 8 -13 15 -21 15 -13
0 -13 -3 -3 -15z"/>
<path d="M3505 269 c-4 -6 -5 -13 -2 -16 7 -7 27 6 27 18 0 12 -17 12 -25 -2z"/>
<path d="M2178 202 c-15 -37 -30 -75 -34 -84 -10 -28 11 -21 24 7 10 20 19 25
51 25 33 0 40 -4 45 -25 4 -14 13 -25 20 -25 10 0 4 23 -22 85 -19 47 -40 85
-46 85 -6 0 -23 -30 -38 -68z m45 -30 c-33 -5 -35 -1 -22 38 l12 33 18 -34 17
-34 -25 -3z"/>
<path d="M3249 257 c-21 -16 -39 -51 -39 -76 0 -33 48 -81 82 -81 38 0 68 16
68 37 0 15 -2 15 -18 0 -23 -21 -66 -22 -86 -1 -9 8 -16 31 -16 49 0 18 7 41
16 49 19 20 58 21 77 1 21 -20 30 -5 10 17 -18 21 -70 24 -94 5z"/>
<path d="M2530 210 c-41 -41 -10 -110 49 -110 16 0 34 7 41 15 16 20 5 32 -14
16 -18 -15 -58 -11 -64 7 -2 8 11 12 47 12 42 0 51 3 51 18 0 55 -70 82 -110
42z m78 -12 c21 -21 13 -28 -28 -28 -38 0 -52 14 -33 33 11 11 48 8 61 -5z"/>
<path d="M2739 214 c-18 -22 -1 -46 40 -57 43 -11 34 -32 -13 -31 -37 1 -48
-9 -20 -20 48 -18 98 9 77 42 -5 9 -24 21 -42 26 -42 12 -34 31 13 30 29 -1
34 1 25 12 -16 19 -64 18 -80 -2z"/>
<path d="M3467 212 c-38 -42 -10 -112 44 -112 31 0 67 24 51 34 -6 3 -13 2
-17 -4 -9 -15 -51 -12 -65 5 -11 13 -6 15 38 15 60 0 72 12 45 48 -25 34 -72
41 -96 14z m81 -24 c3 -15 -4 -18 -37 -18 -43 0 -50 7 -29 28 18 18 62 11 66
-10z"/>
<path d="M3665 209 c19 -58 46 -110 56 -107 13 4 62 119 54 127 -9 8 -22 -12
-35 -51 -6 -21 -15 -38 -20 -38 -5 0 -15 19 -22 42 -8 23 -20 44 -27 46 -10 3
-11 -2 -6 -19z"/>
<path d="M3877 212 c-38 -42 -10 -112 44 -112 31 0 67 24 51 34 -6 3 -13 2
-17 -4 -9 -15 -51 -12 -65 5 -11 13 -6 15 38 15 60 0 72 12 45 48 -25 34 -72
41 -96 14z m81 -24 c3 -15 -4 -18 -37 -18 -43 0 -50 7 -29 28 18 18 62 11 66
-10z"/>
<path d="M4080 165 c0 -37 4 -65 10 -65 6 0 10 17 10 38 0 46 19 76 46 70 15
-2 20 -13 22 -56 4 -68 22 -68 22 1 0 57 -12 77 -45 77 -12 0 -26 -5 -33 -12
-9 -9 -12 -9 -12 0 0 7 -4 12 -10 12 -6 0 -10 -28 -10 -65z"/>
<path d="M4290 163 c0 -49 3 -63 15 -63 11 0 15 11 15 43 0 46 13 67 42 67 15
0 18 -9 18 -55 0 -42 3 -55 15 -55 18 0 21 63 5 104 -8 22 -14 25 -60 24 l-50
-1 0 -64z"/>
<path d="M4517 212 c-38 -42 -10 -112 44 -112 31 0 67 24 51 34 -6 3 -13 2
-17 -4 -9 -15 -51 -12 -65 5 -11 13 -6 15 38 15 60 0 72 12 45 48 -25 34 -72
41 -96 14z m81 -24 c3 -15 -4 -18 -37 -18 -43 0 -50 7 -29 28 18 18 62 11 66
-10z"/>
<path d="M4722 213 c-14 -27 -5 -41 34 -53 19 -7 34 -18 34 -27 0 -12 -8 -15
-40 -10 -40 5 -55 -5 -24 -17 33 -13 73 -6 84 14 14 26 7 36 -35 50 -48 16
-48 45 0 37 35 -6 48 6 19 17 -30 11 -63 6 -72 -11z"/>
<path d="M3000 140 c0 -39 1 -40 35 -40 31 0 34 3 31 23 -3 12 -5 30 -5 40 -1
12 -9 17 -31 17 -28 0 -30 -2 -30 -40z"/>
</g>
</svg>
